<?xml version="1.0" encoding="UTF-8" standalone="no"?>
<svg
   xmlns:dc="http://purl.org/dc/elements/1.1/"
   xmlns:cc="http://creativecommons.org/ns#"
   xmlns:rdf="http://www.w3.org/1999/02/22-rdf-syntax-ns#"
   xmlns:svg="http://www.w3.org/2000/svg"
   xmlns="http://www.w3.org/2000/svg"
   version="1.1"
   id="svg9795"
   viewBox="0 0 722.49731 508.97746"
   height="508.97745"
   width="722.49731">
  <defs
     id="defs9797" />
  <metadata
     id="metadata9800">
    <rdf:RDF>
      <cc:Work
         rdf:about="">
        <dc:format>image/svg+xml</dc:format>
        <dc:type
           rdf:resource="http://purl.org/dc/dcmitype/StillImage" />
        <dc:title></dc:title>
      </cc:Work>
    </rdf:RDF>
  </metadata>
  <g
     transform="translate(1517.3665,186.77592)"
     id="layer1">
    <path
       id="path10386"
       d="m -1190.2156,321.58459 c -10.8575,-1.35938 -59.0474,-14.66061 -65.6031,-18.10758 -2.5173,-1.32361 -14.1886,-6.71349 -25.9361,-11.97754 -41.3241,-18.51731 -75.3053,-45.76397 -100.4657,-80.55572 -20.5347,-28.39507 -29.2148,-51.71659 -29.2148,-78.49408 0,-14.25906 -1.1338,-20.35838 -3.8141,-20.51888 -27.8865,-1.66977 -45.6652,-9.10759 -62.9737,-26.345396 -8.3313,-8.297167 -17.7559,-15.085787 -20.9433,-15.085787 -3.1877,0 -8.9491,-3.055284 -12.8032,-6.789507 -8.3725,-8.111838 -7.0217,-16.757279 4.1799,-26.754601 4.1455,-3.69973 10.8358,-9.622885 14.8672,-13.162559 4.0314,-3.539646 11.1266,-14.1628331 15.767,-23.60708714 4.6404,-9.44421996 11.1647,-22.77285986 14.4983,-29.61918986 14.433,-29.64247 56.5392,-67.42919 81.4259,-73.073253 12.5219,-2.83988 25.1717,1.08045 30.4386,9.433363 2.697,4.27749 7.981,8.48019 11.7417,9.33932 9.6986,2.2156 26.89,16.65469 31.2582,26.25391 l 3.7015,8.13384 13.9112,-6.73241 c 8.4274,-4.0785 19.0161,-6.73241 26.8613,-6.73241 8.9492,0 13.5173,-1.34618 14.7869,-4.35745 1.1681,-2.7703 3.9188,-3.75605 7.5526,-2.70629 9.7621,2.82011 16.3578,-9.7037 12.7749,-24.25616 -3.5072,-14.243993 -2.2482,-20.046773 9.2989,-42.856943 11.0204,-21.77037 37.7983,-46.61704 53.046,-49.22068 11.912,-2.03399 21.6539,1.51313 24.2533,8.8308 1.0631,2.99229 8.7935,6.86494 20.0947,10.06642 13.1907,3.73681 22.7541,8.95222 33.9338,18.50576 l 15.5669,13.30256 13.6192,-5.31357 c 17.1501,-6.69133 54.0798,-7.11503 77.39943,-0.88804 25.3853,6.7786 60.9998,26.72952 83.797,46.942103 9.5158,8.43692 32.3494,38.36609 40.518,53.10883 10.1099,18.24691 17.657,49.6252489 14.6011,60.707802 -1.4728,5.340533 -0.2777,7.571153 5.5561,10.377313 10.8236,5.205639 27.3263,26.226496 34.668,44.159657 5.169,12.625568 6.478,22.657911 6.8865,52.768775 0.5166,38.08708 -0.7012,44.67143 -12.2705,66.34106 -13.855,25.95099 -17.3415,30.3659 -37.0822,46.95888 -24.6771,20.74196 -38.0171,29.18904 -62.9389,39.85358 -17.5444,7.50758 -21.192,8.07399 -44.244,6.87039 -13.8178,-0.72146 -28.086,-2.00472 -31.7076,-2.85168 -11.9867,-2.80353 -30.94213,-16.11984 -34.69973,-24.37712 -2.0353,-4.47188 -4.5636,-8.09706 -5.6184,-8.05596 -1.0552,0.0411 -5.3511,5.14304 -9.5466,11.33765 -4.1956,6.19464 -15.8668,19.19386 -25.9361,28.88718 -23.8222,22.93272 -43.2672,29.55454 -90.0135,30.65355 -17.6213,0.41426 -36.158,0.23745 -41.1926,-0.39285 z m 74.7569,-12.76374 c 20.5176,-4.47368 37.3672,-14.28673 54.4027,-31.68379 19.2394,-19.6479 31.2307,-40.05936 43.0777,-73.32737 12.7886,-35.9124 13.001,-60.82382 0.6609,-77.54768 -15.172,-20.56224 -36.6138,-28.54041 -60.7835,-22.61662 -17.6469,4.3251 -27.0776,12.32635 -32.7051,27.74771 -5.1537,14.12251 -8.7112,16.81033 -22.4473,16.95933 -7.6813,0.0833 -7.8189,0.31075 -2.4319,4.02404 4.1513,2.86134 5.1711,5.88902 3.7367,11.09152 l -1.9733,7.15583 6.1804,-5.62523 c 3.3989,-3.09389 6.1801,-6.63223 6.1801,-7.86299 0,-1.23076 3.387,-6.41643 7.527,-11.52373 4.1397,-5.10729 6.9274,-10.16857 6.195,-11.24727 -2.6677,-3.92889 19.3157,-23.69399 30.4173,-27.34759 13.5261,-4.45171 34.516,-0.43539 43.1601,8.25851 6.5627,6.60054 2.9872,10.35143 -5.3502,5.61232 -11.0845,-6.3009 -10.2612,-0.51144 1.1446,8.04579 11.2303,8.42573 19.0914,23.64952 16.7825,32.50021 -0.9737,3.73128 -2.1216,2.91789 -4.8684,-3.44916 -7.2633,-16.83558 -11.144,-21.43448 -23.7703,-28.16959 l -12.8972,-6.87949 -6.5841,5.99281 c -4.3292,3.94061 -9.0938,5.55608 -13.9137,4.71748 -4.0311,-0.70144 -7.3295,-0.19886 -7.3295,1.11683 0,1.31569 1.583,2.39218 3.5181,2.39218 1.9352,0 0.3518,2.49957 -3.5181,5.55461 -3.87,3.05503 -5.7966,5.5989 -4.281,5.65303 1.5153,0.0542 -0.429,1.70657 -4.321,3.6721 -3.8922,1.96552 -8.8103,6.60792 -10.9291,10.31646 -2.1189,3.70853 -5.3267,6.46975 -7.1285,6.13606 -1.8018,-0.33369 -6.9774,3.81021 -11.5013,9.20865 -8.5137,10.16002 -13.5673,11.25258 -7.9633,1.72168 4.007,-6.81484 0.906,-10.00313 -5.2903,-5.43921 -3.7333,2.74995 -4.2169,2.74506 -2.3889,-0.025 1.2602,-1.9094 0.9517,-3.47163 -0.6856,-3.47163 -1.6376,0 -3.516,1.47105 -4.1745,3.26902 -2.2217,6.06661 -8.7847,-0.74409 -6.7208,-6.97439 1.5601,-4.70947 1.1754,-5.3087 -1.7734,-2.76058 -2.0713,1.79003 -5.6584,2.59364 -7.9713,1.78583 -2.3125,-0.80694 -4.205,-0.0844 -4.205,1.60656 0,1.69096 -2.0596,3.07445 -4.5769,3.07445 -5.8094,0 -5.7423,-1.26145 0.5578,-10.5126 l 5.1344,-7.53988 -6.9671,6.43257 c -8.4872,7.83611 -11.8775,6.05166 -5.139,-2.70498 6.5948,-8.57004 6.1924,-12.60596 -0.6917,-6.93534 -3.0693,2.52804 -9.4615,4.59641 -14.2056,4.59641 l -8.6255,0 8.8659,-7.1402 c 10.5316,-8.48208 21.2902,-13.02592 31.7504,-13.40971 6.0901,-0.2233 7.4494,0.90679 6.7412,5.60554 -0.7387,4.90294 0.3723,5.66631 6.6561,4.57291 6.7397,-1.17269 7.1883,-2.02143 4.2114,-7.96839 -3.5032,-6.99855 -4.9635,-7.5414 -18.18,-6.75915 -4.5098,0.2669 -11.1488,-0.95128 -14.753,-2.70709 -7.4482,-3.62822 -18.0247,-22.90198 -18.27,-33.294597 -0.2411,-10.131021 -5.7615,-15.145804 -22.2977,-20.249433 -8.0848,-2.495186 -22.8454,-9.487909 -32.8015,-15.539376 -19.0695,-11.59055 -22.0714,-10.476379 -15.4976,5.751991 4.8961,12.087076 6.6674,21.704906 3.9975,21.704906 -1.4674,0 -4.2206,-4.061806 -6.1179,-9.026237 -1.9034,-4.979317 -2.7523,-5.913241 -1.8936,-2.082978 0.8559,3.818793 2.3913,10.69262 3.4119,15.275171 1.2935,5.807953 0.8773,7.490583 -1.3743,5.554607 -3.3713,-2.898866 -12.8334,-44.206149 -12.8334,-56.024854 0,-3.744639 -3.5963,-13.727408 -7.9914,-22.183937 -6.1139,-11.7631861 -7.6405,-18.2102851 -6.4972,-27.441705 1.5574,-12.57546 -0.6743,-15.16222 -13.08,-15.16222 -3.732,0 -7.8119,-4.08908 -11.7771,-11.80354 -10.372,-20.17872 -19.1607,-26.52892 -41.5139,-29.99491 -6.7129,-1.04088 -14.7955,-2.88437 -17.9615,-4.09666 -8.4573,-3.23856 -4.8568,4.86237 3.7296,8.39104 4.1888,1.72137 6.4199,4.8159 5.9052,8.18963 -0.6335,4.1521 1.5632,5.87447 9.3742,7.3503 14.6075,2.75998 30.3455,11.08467 32.028,16.94158 0.8126,2.82766 4.2349,5.02256 7.8315,5.02256 9.2519,0 7.8678,7.17 -2.7657,14.32567 -5.0347,3.3880299 -9.1539,7.3888499 -9.1539,8.8906999 0,3.52453996 -9.2891,12.888581 -12.7856,12.888581 -1.4771,0 -1.2159,-2.499573 0.5804,-5.554607 4.3081,-7.327024 1.0581,-7.041684 -7.9084,0.694326 -8.2096,7.0830131 -9.597,11.7946261 -2.7712,9.4105321 3.0247,-1.056514 4.5769,0.09832 4.5769,3.405947 0,8.450002 3.3763,8.764615 14.1074,1.314609 12.0487,-8.364656 13.5268,-4.852311 2.8283,6.720353 -4.9782,5.38497 -6.8975,10.094083 -5.7465,14.099594 2.2677,7.893597 7.1059,7.735096 7.1654,-0.234683 0.031,-3.436913 1.518,-8.123613 3.3161,-10.414889 2.5466,-3.245085 2.8438,-2.63119 1.345,2.777304 -1.0585,3.818793 -2.7519,16.695901 -3.7631,28.615811 -1.2624,14.874156 -2.8252,20.774871 -4.9831,18.8109 -2.1576,-1.963998 -5.4195,0.38524 -10.398,7.489139 l -7.2541,10.350789 1.2599,-8.331911 c 0.6929,-4.582552 2.221,-10.831485 3.3961,-13.886519 1.175,-3.055034 -0.5709,-1.13825 -3.8798,4.259523 -6.3479,10.355344 -8.3255,37.339353 -2.4963,34.060163 1.9385,-1.0904 2.2479,0.24218 0.8306,3.57861 -1.2419,2.92372 -2.9122,9.06523 -3.7116,13.64778 l -1.4539,8.33191 4.1708,-8.30705 4.1705,-8.30706 2.4047,6.9184 c 1.3228,3.80513 2.1649,8.60306 1.8717,10.6621 -0.2929,2.05904 1.6502,5.9401 4.3194,8.62458 2.6824,2.69782 3.9915,6.92388 2.9272,9.4485 -1.1376,2.69826 -0.4043,4.56761 1.7917,4.56761 2.5802,0 3.1688,3.18596 1.9241,10.41489 -1.2785,7.42482 -0.9996,8.82019 0.9716,4.86028 2.4386,-4.89936 2.8319,-4.57172 3.3332,2.77731 0.3784,5.54347 1.0594,6.59173 2.0358,3.13221 1.3365,-4.73677 1.844,-4.61313 5.6999,1.38865 2.3278,3.62361 5.0972,8.76143 6.1539,11.41739 1.0566,2.65599 3.1382,4.14446 4.6257,3.30774 1.4875,-0.83675 2.7044,1.67688 2.7044,5.58583 0,3.90894 1.3386,7.10717 2.975,7.10717 1.6361,0 2.3276,4.06181 1.5361,9.02624 l -1.439,9.02624 3.5148,-9.72057 3.5151,-9.72056 3.8684,11.10922 c 2.1277,6.11006 3.974,9.54698 4.1028,7.63758 0.5685,-8.41481 6.3784,-2.44097 6.7528,6.94326 0.2594,6.52894 0.9112,8.06796 1.7439,4.12477 2.0895,-9.89587 6.9496,-4.30996 7.4274,8.53701 l 0.433,11.63963 2.1854,-11.10922 c 1.2019,-6.11006 2.38,-8.92208 2.6183,-6.24893 0.238,2.67316 2.4926,4.86028 5.0099,4.86028 2.907,0 4.6551,2.78692 4.7915,7.63759 0.177,6.28051 0.6176,6.70269 2.4831,2.37604 2.1076,-4.88809 2.7224,-4.73625 8.6645,2.13938 3.5176,4.0705 6.8627,6.21311 7.4336,4.76133 1.987,-5.05411 10.9179,4.00054 13.1762,13.35863 2.2216,9.20788 2.1145,9.33075 -6.4346,7.37769 -4.7817,-1.09234 -9.5479,-3.24353 -10.5914,-4.78041 -1.0436,-1.53687 -2.7965,-2.59286 -3.8956,-2.3466 -4.7854,1.07229 -20.2042,-3.4398 -20.2042,-5.91249 0,-1.4963 -1.3847,-1.94161 -3.0773,-0.98955 -1.6922,0.95203 -4.3514,-1.16133 -5.9091,-4.69639 -1.5577,-3.53504 -2.9192,-4.86512 -3.0254,-2.95572 -0.306,5.49506 -5.6876,4.03678 -7.8357,-2.12331 -1.0732,-3.07722 -3.2076,-4.88813 -4.7433,-4.02425 -1.5354,0.86385 -5.8149,-0.99269 -9.5094,-4.12563 -3.6945,-3.13297 -8.3581,-5.69631 -10.3631,-5.69631 -2.0054,0 -4.364,-2.49957 -5.2416,-5.55461 -1.5735,-5.47637 -8.2699,-7.93367 -8.2699,-3.03467 0,4.71875 29.5311,26.61121 49.3381,36.57598 29.1533,14.66711 84.7292,32.79043 108.4226,35.35677 22.8576,2.4758 38.1163,1.75806 58.8819,-2.76967 z m 3.0513,-26.71758 c 0,-1.56365 1.7164,-3.40095 3.8142,-4.08286 2.0977,-0.68194 2.8755,-2.16102 1.7285,-3.28686 -1.147,-1.12583 -3.8931,-1.01396 -6.1026,0.24857 -2.2094,1.26259 -8.3752,2.32508 -13.7019,2.3611 l -9.6851,0.0655 10.4684,-7.85527 c 10.902,-8.18057 21.0696,-21.38515 13.0202,-16.90928 -2.2653,1.25957 -9.3885,6.72199 -15.8292,12.13868 -6.4407,5.41672 -13.9927,10.8692 -16.7822,12.11668 -2.7895,1.24746 -1.6389,-0.49602 2.5567,-3.87436 5.3743,-4.32749 6.4352,-6.52217 3.5911,-7.42754 -2.9659,-0.94403 -2.1564,-3.23245 3.0513,-8.6235 l 7.0885,-7.33847 -8.2971,6.65264 c -4.5633,3.65896 -7.668,7.57915 -6.899,8.71154 2.0541,3.02496 -4.9572,7.29976 -14.5542,8.87371 -9.0346,1.48175 -10.5547,-0.32786 -4.7295,-5.62996 2.8478,-2.59214 2.5088,-3.33276 -1.5256,-3.33276 -7.332,0 -6.5512,-1.94489 4.8137,-11.99004 5.5006,-4.86186 14.2682,-13.79837 19.4838,-19.85894 8.4814,-9.85574 10.0333,-10.6033 14.6972,-7.08015 4.6087,3.48151 5.882,3.14849 10.9615,-2.86732 3.3311,-3.9453 5.7755,-5.20411 5.8149,-2.99468 0.052,2.9551 1.0295,3.08508 4.3478,0.57842 2.5628,-1.9358 4.7054,-2.15252 5.3398,-0.54001 0.9691,2.46258 13.5987,-2.23921 33.0984,-12.32179 4.1956,-2.16935 9.8844,-3.96271 12.6416,-3.98524 2.7574,-0.0222 5.8585,-2.04528 6.891,-4.49503 1.0723,-2.5431 3.8306,-3.77208 6.4291,-2.86449 3.1719,1.10787 4.5514,-0.23579 4.5514,-4.43324 0,-4.31374 0.9355,-5.17148 3.2963,-3.02259 4.3814,3.98782 -2.929,23.59647 -18.9675,50.87937 -11.1153,18.90724 -28.2054,38.89975 -32.8394,38.41611 -1.0097,-0.10526 -2.5225,0.0605 -3.3616,0.36868 -0.8391,0.3082 -4.2719,0.91982 -7.6283,1.35919 -3.3564,0.43939 -8.5055,1.71873 -11.4424,2.84301 -3.0705,1.17544 -5.3398,0.83594 -5.3398,-0.79886 z m 4.523,-18.76347 c 11.4247,-13.63331 8.3947,-14.39968 -3.9627,-1.0023 -5.5324,5.9979 -8.771,10.90528 -7.1975,10.90528 1.5739,0 6.596,-4.45635 11.1602,-9.90298 z m -16.7282,-6.85855 c 0,-3.94555 -1.4606,-3.34068 -7.9181,3.27914 -5.7816,5.92679 -5.7758,5.94115 1.0527,2.6796 3.776,-1.80356 6.8654,-4.48496 6.8654,-5.95874 z m 34.7287,-4.2125 c 1.0421,-2.47158 0.5304,-3.58639 -1.1994,-2.61339 -1.6587,0.93323 -3.0162,2.87284 -3.0162,4.31021 0,3.99496 2.1871,3.11464 4.2156,-1.69682 z m -12.9802,-8.88199 c 3.7952,-4.40497 3.6875,-4.5032 -1.1522,-1.04859 -2.9369,2.09644 -5.3398,4.28357 -5.3398,4.86028 0,2.28583 2.5058,0.81461 6.492,-3.81169 z m -4.0299,-10.48837 c -0.9395,-0.85511 -2.6457,0.6863 -3.7915,3.42533 -1.656,3.95821 -1.3054,4.27721 1.7081,1.55474 2.0853,-1.88396 3.0229,-4.12497 2.0834,-4.98007 z m -5.124,-3.39814 c 3.7952,-4.40497 3.6875,-4.50321 -1.1522,-1.0486 -2.9369,2.09644 -5.3398,4.28357 -5.3398,4.86028 0,2.28583 2.5058,0.81461 6.492,-3.81168 z m -55.8304,16.66382 c 8.2767,-7.25571 17.4291,-16.62911 20.3391,-20.82978 5.3484,-7.72068 10.6915,-10.07978 10.6915,-4.72044 0,4.19667 -37.6656,38.74241 -42.2414,38.74241 -2.1105,0 2.9342,-5.93649 11.2108,-13.19219 z m -5.3059,-8.33191 c 20.7928,-19.9341 24.1313,-22.3676 24.1313,-17.58958 0,4.046 -35.6798,36.33638 -40.1506,36.33638 -1.9443,0 5.2644,-8.43606 16.0193,-18.7468 z m -21.6383,6.75432 c 7.6063,-5.78982 22.6321,-21.33517 20.6222,-21.33517 -1.0331,0 -3.6929,1.57015 -5.9106,3.48924 -15.6001,13.49986 -24.9362,18.86875 -27.1478,15.61181 -1.8711,-2.75584 -3.3436,-2.72207 -7.1648,0.16441 -10.5441,7.96495 -3.9197,-0.89862 10.4392,-13.96808 12.1567,-11.06525 14.4988,-14.60957 11.5519,-17.48121 -2.9997,-2.92276 -5.1558,-2.34122 -11.4345,3.08408 -10.9346,9.44833 -23.7434,15.26762 -26.0685,11.84337 -1.042,-1.53482 1.2828,-3.95061 5.1668,-5.36836 6.3812,-2.32952 6.4736,-2.60287 0.9587,-2.83827 -5.6367,-0.24051 -5.6928,-0.47764 -0.7387,-3.10366 2.9503,-1.56374 6.9383,-1.95753 8.8625,-0.87508 1.9791,1.11334 2.6723,0.75085 1.5955,-0.83463 -1.0466,-1.54149 1.5638,-5.76702 5.8006,-9.39001 5.6516,-4.83253 7.1653,-5.31001 5.6821,-1.79236 -1.1119,2.63721 -3.2475,4.79493 -4.7463,4.79493 -1.4985,0 -2.7248,1.48361 -2.7248,3.29691 0,1.8133 3.79,-0.008 8.4219,-4.04728 8.6843,-7.57282 19.4618,-6.71608 14.2682,1.13419 -2.0874,3.15483 -1.6462,3.14994 2.6601,-0.0294 4.7216,-3.48598 6.513,-2.44469 5.4957,3.19465 -0.2136,1.18813 1.6749,2.88132 4.1983,3.76264 2.5231,0.88132 3.6454,3.03368 2.4938,4.78299 -1.1515,1.74934 0.1831,1.50024 2.9662,-0.55357 2.7831,-2.05382 6.8227,-3.19699 8.977,-2.54038 4.6352,1.41282 -28.8517,32.70498 -34.8551,32.57064 -2.9106,-0.0653 -2.745,-1.00294 0.6304,-3.57225 z m -4.4515,-7.63342 c 3.2841,-4.83651 -0.4562,-5.86078 -4.6411,-1.27101 -2.4069,2.63952 -2.6384,4.23309 -0.6151,4.23309 1.7847,0 4.1501,-1.33294 5.2562,-2.96208 z m -23.0102,-0.80098 c 0,-2.6308 25.421,-24.0159 26.9231,-22.64871 0.8352,0.76009 -1.1051,4.02409 -4.3114,7.25337 -6.5009,6.54746 -22.6117,17.51665 -22.6117,15.39534 z m 100.693,-34.54768 c 0,-1.46778 1.8857,-4.09311 4.1904,-5.83409 2.3046,-1.74095 5.8063,-10.64249 7.7817,-19.78118 4.1947,-19.40644 9.3871,-21.91143 9.3871,-4.52864 0,7.95058 -2.3495,15.24345 -6.8655,21.30997 -6.8618,9.21785 -14.4937,13.86955 -14.4937,8.83394 z m 70.18,-32.12294 c 0,-2.07811 -3.4327,-8.38257 -7.6282,-14.00985 -8.627,-11.57081 -9.0163,-12.7621 -4.1721,-12.7621 2.5598,0 14.8516,10.13599 14.8516,12.24682 0,0.15831 1.2773,4.34126 2.8384,9.29561 2.2573,7.16433 1.9452,9.00791 -1.5257,9.00791 -2.4001,0 -4.364,-1.70027 -4.364,-3.77839 z m -161.7191,-29.37765 c -4.1956,-1.12858 -7.2722,-3.53837 -6.8371,-5.35503 0.4351,-1.81669 -1.2733,-4.02412 -3.7967,-4.90544 -7.1422,-2.4946 -2.2131,-6.57496 7.9425,-6.57496 5.255,0 8.36,1.16941 7.2899,2.7455 -1.0722,1.57915 0.1648,2.03707 2.91,1.07793 7.1205,-2.48708 14.6225,3.99082 9.9235,8.5692 -2.0178,1.96636 -5.6181,2.89451 -7.9999,2.06257 -2.7621,-0.96475 -3.5316,-0.33572 -2.1244,1.73665 1.2136,1.78711 1.782,3.12469 1.2633,2.97243 -0.5184,-0.15219 -4.3756,-1.20024 -8.5711,-2.32885 z m -82.7462,-52.246054 c -4.0686,-9.528263 -6.3968,-53.463098 -2.8332,-53.463098 1.4427,0 1.8848,-2.81202 0.9829,-6.248933 -1.4561,-5.548414 -1.1293,-5.78193 2.914,-2.082978 3.9493,3.612967 7.4586,19.178505 13.1492,58.323379 l 1.4131,9.720563 -4.349,-9.720563 c -2.3922,-5.346309 -4.4537,-12.532583 -4.5812,-15.969496 -0.1282,-3.436914 -1.6978,-6.248934 -3.4892,-6.248934 -1.7914,0 -2.5781,2.187127 -1.7484,4.860282 3.0888,9.95344 5.4774,28.467363 3.6722,28.467363 -1.028,0 -3.3369,-3.436913 -5.1304,-7.637585 z m 2.3818,-43.048209 c -0.8464,-1.909396 -1.5391,-0.347162 -1.5391,3.47163 0,3.818793 0.6927,5.381026 1.5391,3.47163 0.8464,-1.909396 0.8464,-5.033863 0,-6.94326 z m -12.107,43.22804 c -2.1102,-3.108137 -2.8578,-20.395159 -1.9589,-45.311017 0.6826,-18.927215 0.9627,-17.785687 3.0644,12.497867 2.2528,32.452239 2.0826,37.507904 -1.1055,32.81315 z m -13.0101,-13.421099 c -1.1073,-5.373277 -0.9355,-18.183591 0.382,-28.467364 2.7776,-21.679244 3.6213,-19.421602 5.208,13.935594 1.1683,24.56353 -1.886,32.50312 -5.59,14.53177 z m -10.1071,-14.068876 c 0.1983,-10.565336 1.4432,-22.959054 2.7663,-27.541606 1.5757,-5.458318 2.2054,0.48028 1.8262,17.218812 -0.3186,14.052907 -1.5632,26.446625 -2.7663,27.541605 -1.2029,1.09498 -2.0249,-6.653504 -1.8262,-17.218811 z m 65.802,8.890093 c -1.147,-2.720841 -1.9986,-7.031911 -1.8922,-9.580142 0.1282,-3.068588 1.1879,-2.368846 3.1383,2.072174 1.6199,3.687898 2.4716,7.998968 1.8924,9.580142 -0.5791,1.581147 -1.9913,0.648695 -3.1385,-2.072174 z m -58.6602,-63.0008591 c -2.2674,-3.339402 6.9894,-10.701253 13.6253,-10.836123 2.9751,-0.0605 2.0856,2.10184 -2.8203,6.85494 -8.2168,7.9609211 -8.1256,7.9273161 -10.805,3.981183 z M -898.02757,263.81428 c 39.1327,-17.68337 71.7738,-52.58883 86.5042,-92.50549 9.0764,-24.59497 10.8023,-48.81892 4.808,-67.48154 -6.6284,-20.636947 -28.2209,-58.313267 -36.1195,-63.023797 -6.8777,-4.101883 -7.8529,-4.019536 -14.1392,1.193936 -8.947,7.420122 -28.0659,12.799426 -37.6827,10.602496 -10.4913,-2.39673 -7.0842,1.914617 9.9369,12.573937 13.5591,8.491023 13.694,8.727038 8.2355,14.393377 -4.1886,4.348063 -4.4269,5.399023 -0.9725,4.285546 2.5173,-0.811389 7.3232,-0.532548 10.6796,0.619617 6.6836,2.294247 4.6709,3.460992 -11.5672,6.706466 -8.3719,1.673242 -8.8735,7.093817 -0.6566,7.093817 2.3089,0 8.017,1.321552 12.6845,2.936775 5.8079,2.00985 7.2878,3.61097 4.689,5.07289 -2.6614,1.49716 -1.4894,3.09319 3.9175,5.33561 7.4764,3.10047 10.6439,8.87316 4.8693,8.87316 -3.3946,0 -7.8476,10.90213 -6.6772,16.34798 0.819,3.8111 -1.7142,3.65979 -16.4132,-0.98044 -4.3579,-1.37574 -3.5197,0.0869 2.932,5.1166 9.4123,7.3375 8.9067,13.65978 -0.5697,7.12428 -4.6157,-3.18315 -4.8516,-3.1596 -1.5995,0.1597 5.8756,5.99745 4.5236,8.8779 -2.55,5.43221 -7.8321,-3.81521 -10.7253,-1.93731 -4.3893,2.8489 5.9299,4.47935 5.9641,8.38763 0.073,8.38763 -2.5174,0 -4.577,1.39351 -4.577,3.09672 0,1.86235 -3.1462,1.22037 -7.8928,-1.61056 -10.0303,-5.98176 -12.6895,-3.67099 -6.181,5.37042 4.266,5.92612 4.3594,7.02993 0.5934,7.02993 -2.4569,0 -5.3159,-1.24978 -6.3531,-2.7773 -1.0371,-1.52752 -3.2094,-2.7773 -4.8272,-2.7773 -1.6181,0 -0.6923,3.12446 2.0566,6.94326 6.3821,8.86579 -0.07,9.61386 -8.3139,0.96369 l -5.6977,-5.97956 0,5.81565 c 0,3.19862 1.3731,6.58807 3.0513,7.53213 1.6783,0.94406 3.0513,3.59113 3.0513,5.88241 0,2.34938 -1.4792,3.33382 -3.3924,2.25759 -1.8659,-1.0496 -4.5577,-0.19219 -5.9821,1.90553 -2.0901,3.07817 -3.5285,2.74495 -7.4555,-1.72715 -4.7097,-5.36336 -4.7546,-5.33303 -1.3991,0.94573 4.2825,8.01269 1.7786,10.87156 -5.0221,5.73427 -4.5629,-3.44677 -4.8592,-3.18134 -2.8576,2.55923 1.6075,4.60946 1.0894,6.23224 -1.8481,5.78912 -6.9893,-1.05432 -14.455,3.30977 -12.7166,7.43346 1.0078,2.39031 -0.2655,3.9361 -3.2439,3.9361 -2.697,0 -4.9034,1.6635 -4.9034,3.69665 0,2.03315 -3.4328,5.36881 -7.6283,7.41257 -9.6961,4.72325 -10.314,18.36156 -1.3041,28.78714 3.4782,4.02479 5.1945,7.33694 3.8141,7.36033 -1.3804,0.0222 -0.4504,1.32405 2.067,2.89034 2.5173,1.56629 14.1885,2.45758 25.9361,1.98063 17.4989,-0.71043 25.6373,-2.80041 45.0323,-11.56469 z m -45.7952,-6.25679 c -9.1051,-4.08545 -14.8125,-14.57055 -6.1026,-11.21079 14.1025,5.43974 20.5518,9.30056 20.5725,12.31524 0.03,4.49415 -2.4071,4.30807 -14.4699,-1.10445 z m 26.699,-9.11642 c -15.2236,-2.04129 -27.4618,-7.99511 -27.4618,-13.35997 0,-4.56025 0.7665,-4.46363 14.3997,1.81536 13.8429,6.37544 32.9913,10.43088 30.2601,6.40871 -1.0301,-1.51719 0.851,-3.40687 4.18,-4.19926 3.329,-0.79239 6.9942,-3.7465 8.1449,-6.56468 1.1506,-2.81819 4.8006,-7.31109 8.1106,-9.98424 3.3101,-2.67316 4.8595,-4.86029 3.4428,-4.86029 -1.4167,0 0.088,-1.83493 3.3473,-4.07763 7.866,-5.41522 24.9197,-5.86347 20.0538,-0.52711 -1.8692,2.04993 -2.6675,4.39259 -1.7737,5.20589 0.8934,0.81328 -5.435,8.50947 -14.0635,17.10261 -16.9006,16.83138 -18.057,17.14141 -48.6402,13.04061 z m 52.6167,-46.71386 c 0.6889,-1.14564 3.1642,-6.14478 5.4999,-11.10921 3.0877,-6.56158 6.3559,-9.12953 11.9694,-9.40445 6.8605,-0.33603 6.9808,-0.50958 1.0792,-1.5553 -6.0614,-1.07401 -6.3464,-1.9525 -3.2566,-10.03664 4.5431,-11.88684 8.5085,-15.05316 21.6664,-17.29991 11.064,-1.88921 11.118,-1.8513 11.118,7.79111 0,5.32929 -2.0596,11.24544 -4.5769,13.14704 -2.5174,1.90159 -4.577,4.60479 -4.577,6.00714 0,2.97588 -12.3212,19.43454 -16.7822,22.4177 -4.0225,2.68993 -23.7556,2.72784 -22.1402,0.0425 z m 32.057,-91.15658 c -9.5329,-4.70725 -11.0332,-9.52068 -2.9674,-9.52068 6.3687,0 18.9867,7.48744 18.9867,11.26669 0,3.74072 -6.2982,3.05428 -16.0193,-1.74601 z m 0.8009,-16.318688 c -4.1745,-2.10314 -8.637,-3.234864 -9.9167,-2.514987 -1.2797,0.719905 -2.3266,-0.63953 -2.3266,-3.020956 0,-2.381427 1.5088,-4.329873 3.3531,-4.329873 5.5661,0 24.1086,8.787695 24.1086,11.425661 0,3.527898 -6.4272,2.869094 -15.2184,-1.559845 z m -4.7948,-16.719396 c -3.2576,-2.241951 -12.5683,-6.129037 -20.6906,-8.637942 -9.43,-2.912948 -13.7095,-5.524919 -11.84,-7.226656 4.5929,-4.180398 24.5945,0.484862 34.4542,8.036212 13.0312,9.980491 11.3206,16.943108 -1.9236,7.828386 z m -150.8599,186.595684 c -6.9173,-5.11324 -18.30783,-25.51068 -18.30783,-32.78427 0,-4.24233 -1.0271,-5.49154 -3.0217,-3.67582 -6.5264,5.94024 12.54243,40.16601 22.24773,39.93171 2.3705,-0.0572 2.0474,-1.27955 -0.9182,-3.47162 z m -348.81573,-30.28845 c -0.974,-2.21554 -1.6971,-1.55745 -1.8436,1.67797 -0.1312,2.92772 0.5889,4.56808 1.6029,3.64521 1.0139,-0.9229 1.1222,-3.31832 0.241,-5.32318 z m -9.3712,-8.50549 c -2.7388,-3.43691 -6.3052,-9.06095 -7.9248,-12.49787 -1.6199,-3.43691 -4.3521,-6.24893 -6.0718,-6.24893 -1.72,0 -3.127,-2.49957 -3.127,-5.55461 0,-3.05503 -1.3731,-5.5546 -3.0513,-5.5546 -1.6782,0 -3.1596,-2.18713 -3.292,-4.86028 -0.1312,-2.67316 -0.9026,-3.38279 -1.7112,-1.57693 -0.8086,1.80583 0.5501,6.80498 3.0193,11.10922 5.9344,10.34506 22.8811,31.43293 25.2599,31.43293 1.0335,0 -0.3622,-2.81202 -3.1011,-6.24893 z m 338.3535,-7.63759 c 1.0371,-1.52751 0.4317,-2.7773 -1.3457,-2.7773 -1.777,0 -3.2313,1.24979 -3.2313,2.7773 0,1.52752 0.6054,2.77731 1.3456,2.77731 0.74,0 2.1942,-1.24979 3.2314,-2.77731 z m 14.51143,-20.13544 c 4.7264,-4.96444 13.0064,-14.3172 18.4002,-20.7839 5.3935,-6.4667 13.5826,-13.33317 18.1977,-15.25881 4.6151,-1.92565 8.3911,-4.92702 8.3911,-6.66973 0,-1.7427 3.0895,-5.04289 6.8654,-7.33369 9.2946,-5.6389 20.5964,-14.82416 20.5964,-16.73942 0,-0.85894 -6.0084,1.49488 -13.352,5.23072 -16.917,8.606 -41.0147,29.37185 -53.0847,45.74508 -5.132,6.96167 -11.5065,14.30097 -14.16543,16.30955 -5.0084,3.78327 -6.4758,8.52643 -2.6382,8.52643 1.2077,0 6.06333,-4.0618 10.78953,-9.02623 z m 106.0151,-35.41063 c 0,-1.52752 -1.4542,-2.7773 -3.2313,-2.7773 -1.7774,0 -2.3828,1.24978 -1.3457,2.7773 1.0372,1.52752 2.4914,2.77731 3.2314,2.77731 0.7402,0 1.3456,-1.24979 1.3456,-2.77731 z m -467.81663,-6.07535 c -0.974,-2.21554 -1.6972,-1.55746 -1.8436,1.67796 -0.1312,2.92773 0.5889,4.56808 1.6028,3.64521 1.014,-0.92287 1.1223,-3.31832 0.2411,-5.32317 z m 419.53183,-38.50382 c 3.6485,-7.82527 6.954,-10.9669 11.5382,-10.9669 3.5338,0 7.2771,-2.18713 8.3188,-4.86029 1.0414,-2.67315 3.78,-6.869045 6.0855,-9.324237 3.5936,-3.826652 3.3757,-5.38172 -1.5268,-10.892419 l -5.7191,-6.428458 -2.0776,7.534381 c -1.1424,4.143903 -3.4102,6.784592 -5.0393,5.86822 -1.629,-0.916371 -2.9619,-0.453172 -2.9619,1.029325 0,1.482497 -2.2445,2.395619 -4.9879,2.029126 -2.7432,-0.366466 -10.5212,4.270465 -17.2841,10.304292 -10.5219,9.38724 -11.7836,11.71809 -8.7433,16.14955 1.9544,2.84843 3.5536,7.66869 3.5536,10.7117 0,9.22354 12.9046,1.58501 18.8439,-11.15429 z m 36.6783,-4.40136 c 6.3836,-4.02653 11.6065,-7.68866 11.6065,-8.13805 0,-0.44937 -3.8562,0.18969 -8.5693,1.41992 -9.971,2.60281 -28.0464,10.8018 -28.0464,12.72177 0,3.93197 14.9456,0.34414 25.0092,-6.00364 z m -54.8784,-38.280214 c 4.5498,-4.705919 9.9927,-11.473542 12.0957,-15.0391 4.0964,-6.945926 4.1031,-6.937955 -19.6049,-22.945945 -8.6868,-5.865332 -11.7479,-2.391481 -4.0595,4.606658 3.3247,3.026012 4.6877,3.141325 5.8619,0.495943 0.8415,-1.895759 1.6382,1.938531 1.7706,8.52063 0.1465,7.319445 -0.944,11.300793 -2.8102,10.250972 -1.6782,-0.944061 -3.0513,-0.60123 -3.0513,0.76187 0,1.363073 -2.0597,2.478327 -4.577,2.478327 -3.401,0 -4.7088,-3.627714 -5.0899,-14.117979 l -0.5129,-14.117952 -2.0254,16.663823 -2.0255,16.663823 -0.5129,-22.912757 c -0.6875,-30.710897 0.3341,-30.730949 42.6035,-0.836468 7.1242,5.038473 8.4613,5.200196 11.8913,1.438532 5.4365,-5.962371 -0.6713,-17.24489 -11.3326,-20.934344 -6.0565,-2.095892 -67.68803,-10.912387 -76.28263,-10.912387 -0.5264,0 -0.9569,6.873827 -0.9569,15.275171 0,8.450835 1.3792,15.27517 3.0873,15.27517 1.893,0 2.3324,-4.297655 1.1357,-11.109215 -1.3078,-7.443979 -0.8162,-11.109215 1.4897,-11.109215 2.2701,0 3.3207,6.851692 3.0873,20.135453 -0.1953,11.074498 -0.9819,17.948325 -1.7493,15.27517 -0.7678,-2.673154 -3.3547,-4.860281 -5.7487,-4.860281 -3.2799,0 -4.3533,-4.053281 -4.3533,-16.436667 0,-9.04018 -0.8333,-18.41358 -1.8521,-20.829779 -3.0809,-7.3080301 -7.3018,-4.936463 -7.3018,4.102717 0,4.956654 1.2712,7.780755 3.0513,6.779343 1.8979,-1.067735 3.1877,4.906051 3.4123,15.80558 0.3396,16.488436 4.5977,39.764269 5.3806,29.412758 0.5014,-6.627424 9.5149,-3.091333 9.5149,3.732724 0,2.919724 3.58653,11.551556 7.96973,19.181865 l 7.97,13.873244 12.6263,-13.005725 c 6.9448,-7.15314 16.3492,-16.85604 20.8987,-21.561959 z m -37.777,-21.452311 c -0.8272,-13.240601 2.2668,-37.055509 3.2646,-25.127934 0.1678,1.999548 1.6773,2.863123 3.3555,1.919062 1.6783,-0.944061 3.0514,-0.392933 3.0514,1.224735 0,1.617668 -1.3731,2.94122 -3.0514,2.94122 -1.6782,0 -2.8889,4.061807 -2.6903,9.026238 l 0.361,9.026237 2.3293,-8.331911 c 1.8742,-6.703329 2.3999,-5.029475 2.6904,8.563344 0.2746,12.89541 -0.6646,16.895283 -3.9707,16.895283 -3.1285,0 -4.6114,-4.48168 -5.3398,-16.136274 z m -6.5508,4.890915 c -1.147,-2.720841 -1.9113,-12.031058 -1.6987,-20.689358 l 0.3869,-15.742341 2.6113,18.052475 c 2.7477,18.994508 2.2037,26.688389 -1.2995,18.379224 z m 52.8379,21.891681 c 3.9417,-3.818793 6.4798,-6.94326 5.6407,-6.94326 -0.8392,0 -4.7503,3.124467 -8.692,6.94326 -3.9417,3.818792 -6.4797,6.943259 -5.6406,6.943259 0.8391,0 4.7502,-3.124467 8.6919,-6.943259 z m -472.95233,-8.530905 c 0,-1.927255 1.0299,-3.920665 2.2885,-4.429856 1.2587,-0.509163 5.8369,-5.924905 10.1734,-12.034973 23.1173,-32.569942 32.6474,-44.383509 41.5322,-51.4841581 l 9.8115,-7.840886 -9.781,-1.90284 c -12.8127,-2.49271 -24.8587,-8.6045899 -42.3863,-21.5063599 l -14.2981,-10.52431 -16.113,28.5767899 c -8.8622,15.717259 -21.3082,33.7157151 -27.6576,39.9966161 -6.3495,6.2809 -11.4949,13.154727 -11.4345,15.27517 0.1922,6.75407 14.3677,20.032443 31.0363,29.072289 14.6506,7.945394 16.6446,8.365933 21.4889,4.532282 2.9368,-2.324131 5.3397,-5.802538 5.3397,-7.729764 z m 524.82453,8.694821 c 0,-0.673607 -1.3731,-1.997159 -3.0513,-2.94122 -1.6782,-0.944061 -3.0513,-0.392933 -3.0513,1.224735 0,1.617669 1.3731,2.941221 3.0513,2.941221 1.6782,0 3.0513,-0.551129 3.0513,-1.224736 z M -1093.7084,64.945 c 8.3319,-10.36287 9.1482,-25.000233 2.1845,-39.164427 -6.1847,-12.579881 -16.806,-24.7135601 -21.6332,-24.7135601 -1.5058,0 -0.4851,2.050039 2.2678,4.555639 9.1197,8.3009721 14.4342,17.5615031 12.589,21.9375891 -2.5878,6.138092 -11.3581,3.94691 -19.8893,-4.969124 -4.0195,-4.200672 -9.0084,-7.637585 -11.0866,-7.637585 -2.0782,0 -4.4967,-2.499574 -5.3743,-5.5546081 -0.8778,-3.055034 -4.1275,-5.5623 -7.2215,-5.571716 -3.094,-0.0083 -9.5582,-1.884095 -14.3652,-4.16595504 -9.9863,-4.74049996 -18.4619,-5.48230996 -15.6706,-1.37153996 1.0371,1.52750996 0.5785,2.7773 -1.0191,2.7773 -1.5977,0 -3.8123,-2.15211 -4.9212,-4.78243 -1.6669,-3.95405 -2.4761,-4.10525 -4.6709,-0.87294 -1.8662,2.74825 -3.8566,3.07734 -6.7013,1.10787 -4.9694,-3.44044 -17.7775,-4.28444 -17.7775,-1.17144 0,3.05323 -16.766,9.200596 -26.9104,9.866899 -12.9616,0.851299 -13.2793,1.070567 -11.0936,7.6555821 3.0556,9.205429 8.6178,13.469562 6.3397,4.860282 -1.2559,-4.746607 -0.3613,-4.009455 2.8279,2.329991 2.5656,5.100296 3.8093,11.72711 2.7633,14.726264 -1.8384,5.272684 -2.135,5.240189 -8.9718,-0.982443 -3.8885,-3.539479 -9.2085,-10.791186 -11.8222,-16.114889 -4.5004,-9.1669351 -4.6469,-9.2383121 -2.763,-1.347575 1.0942,4.582551 2.0181,10.792352 2.0532,13.799589 0.073,6.344667 14.9584,19.038917 35.0534,29.895592 12.7603,6.893935 16.9882,7.61995 46.0878,7.914427 17.6213,0.178303 35.4715,1.353297 39.667,2.61111 4.1955,1.257813 13.6689,2.070564 21.0522,1.806136 10.4403,-0.373908 14.6645,-2.02396 19.0059,-7.424038 z m -99.3224,-6.072908 c -0.6856,-2.006213 -2.0138,-9.896589 -2.9515,-17.534174 -0.938,-7.637586 -2.5872,-16.698539 -3.6649,-20.135453 -2.7718,-8.838658 3.1071,-7.779478 7.7076,1.388652 5.514,10.988541 7.854,35.597758 3.6118,37.984129 -1.901,1.069484 -4.0173,0.303059 -4.703,-1.703154 z m -18.1861,-19.893966 c -8.7606,-16.298413 -9.3653,-18.469987 -5.1426,-18.469987 4.5052,0 14.5001,14.41218 16.8529,24.301408 3.3003,13.871522 -2.7348,10.866174 -11.7103,-5.831421 z m 87.3671,7.015081 c -10.1288,-4.547808 -16.0193,-8.963832 -16.0193,-12.009062 0,-7.381157 6.0693,-9.138135 6.3437,-1.836381 0.1312,3.527065 0.9333,4.850617 1.7798,2.94122 2.0068,-4.527227 8.6944,-4.430938 13.7806,0.1983 4.1452,3.773161 6.3684,4.661899 11.6602,4.661899 3.5289,0 4.1755,10.178346 0.7629,12.009033 -1.2587,0.675218 -9.4972,-2.009101 -18.3079,-5.965093 z m -28.6386,-10.123967 c -0.7872,-0.716489 -5.9818,-1.618307 -11.5434,-2.004047 -5.5616,-0.385712 -10.5242,-1.986633 -11.0277,-3.557559 -0.5035,-1.570927 -1.7258,-6.230993 -2.7163,-10.355705 -1.7493,-7.28709 -1.5406,-7.41704 7.3735,-4.588606 5.0456,1.601005 9.1951,4.350869 9.2207,6.110818 0.031,1.772753 1.3661,1.341882 3.0047,-0.966002 2.6293,-3.703062 2.9683,-3.703062 3.0513,0 0.07,3.1263 0.6978,3.299632 2.5152,0.694521 4.0973,-5.873553 13.0315,2.158298 10.8123,9.720369 -1.6697,5.689279 -7.109,8.205932 -10.6903,4.946211 z m 5.5497,-10.327238 c -0.974,-2.215538 -1.6971,-1.557456 -1.8433,1.677964 -0.1312,2.927723 0.5886,4.568082 1.6026,3.645211 1.0139,-0.92287 1.1222,-3.318294 0.241,-5.323175 z m -37.2997,-2.441333 c -1.1064,-1.629138 -1.357,-3.557726 -0.5572,-4.285741 0.7997,-0.728014 2.2674,0.604925 3.2612,2.962078 2.0633,4.893915 0.3052,5.75474 -2.704,1.323663 z m -309.5821,32.913494 c 0,-6.787592 3.2146,-11.953016 13.3952,-21.524104 7.3674,-6.92629 21.9023,-26.8961881 32.2999,-44.3775061 10.3977,-17.4813299 22.8641,-37.0221599 27.7034,-43.4240399 10.4849,-13.87085 32.9279,-28.05376 50.9163,-32.17653 13.8599,-3.1766 16.0837,-6.02348 7.9437,-10.16977 -7.4558,-3.79779 -24.7363,1.40024 -41.2713,12.41463 -22.4045,14.92437 -44.3193,44.05504 -59.2469,78.7555599 -8.0915,18.8091261 -17.7095,31.5448961 -31.1288,41.2187731 -13.7269,9.895672 -17.4004,18.090441 -10.8016,24.096721 7.0354,6.403463 10.1901,4.913134 10.1901,-4.813734 z m 155.5232,-4.955682 c 0,-3.703062 -0.3286,-3.703062 -2.9579,0 -1.627,2.291276 -2.958,6.040636 -2.958,8.331911 0,3.703063 0.3287,3.703063 2.958,0 1.6269,-2.291275 2.9579,-6.040635 2.9579,-8.331911 z m 63.1403,2.082978 c -0.8464,-1.909397 -1.539,-0.347163 -1.539,3.47163 0,3.818792 0.6926,5.381026 1.539,3.471629 0.8465,-1.909396 0.8465,-5.033863 0,-6.943259 z m 23.9153,-4.860282 c -6.5549,-6.110068 -13.3559,-11.057946 -15.1128,-10.995318 -3.1902,0.113592 21.9584,22.104533 25.2785,22.104533 0.9636,0 -3.6109,-4.999146 -10.1657,-11.109215 z m 220.955,-40.0126711 c -2.719,-2.306801 -3.1166,0.224684 -1.6565,10.5442841 1.0566,7.468892 2.2006,19.341893 2.542,26.384386 0.3418,7.04252 1.0872,2.29758 1.6569,-10.544284 0.6835,-15.407565 -0.1801,-24.381283 -2.5424,-26.3843861 z m 119.26553,40.0126711 c 0,-1.527517 -1.4543,-2.777304 -3.2314,-2.777304 -1.7774,0 -2.3827,1.249787 -1.3456,2.777304 1.0371,1.527517 2.4914,2.777304 3.2313,2.777304 0.7403,0 1.3457,-1.249787 1.3457,-2.777304 z m 44.7406,-11.484595 c 13.9582,-10.543867 17.3543,-37.62960914 7.375,-58.819489 -12.8606,-27.30862 -47.3501,-66.56944 -71.9491,-81.902883 -37.5247,-23.39043 -80.85963,-38.18415 -80.85963,-27.6039 0,4.46043 18.99623,9.27514 24.46233,6.20019 3.8221,-2.15011 3.9249,2.2322 0.1343,5.72266 -1.8037,1.66074 1.6623,2.797 9.3531,3.06634 6.7202,0.23524 14.6399,2.42247 17.5994,4.86028 2.9594,2.43781 7.6758,4.43238 10.4803,4.43238 2.8047,0 5.0996,1.24979 5.0996,2.77731 0,1.52751 2.0596,2.7773 4.577,2.7773 2.5173,0 4.5769,1.874683 4.5769,4.165963 0,2.29127 -1.3731,4.16595 -3.0513,4.16595 -1.6782,0 -3.0513,2.11356 -3.0513,4.69678 0,4.22031 0.4138,4.18154 4.0802,-0.38215 2.2443,-2.79342 5.7987,-4.55756 7.8992,-3.92028 2.7743,0.84172 2.2843,2.82782 -1.7917,7.26084 -5.4029,5.87617 -6.4019,5.97543 -26.9699,2.67949 -25.0268,-4.01048 -29.3959,-6.04855 -26.8112,-12.50661 1.688,-4.21665 1.147,-4.16174 -4.6529,0.47225 -5.68,4.53834 -7.2649,4.72511 -11.78263,1.38865 -3.4745,-2.56592 -4.4537,-2.69407 -2.9283,-0.38329 1.3105,1.98585 0.7667,3.47163 -1.2709,3.47163 -2.3346,0 -2.8759,-2.63178 -1.5702,-7.63759 l 1.9922,-7.637593 -7.0183,7.810873 c -7.5993,8.45752 -18.6109,8.17502 -15.7149,-0.40313 1.1913,-3.527903 0.6973,-3.393843 -2.0745,0.56307 -2.9439,4.20251 -4.1437,4.46749 -6.2863,1.38865 -1.9843,-2.85101 -2.6599,-2.92092 -2.695,-0.27889 -0.031,2.18887 -2.7937,3.07255 -7.2907,2.33032 -5.1766,-0.85441 -7.1358,0.0356 -6.8655,3.11838 0.2075,2.37271 -1.1576,4.81052 -3.0354,5.41736 -2.175,0.70291 -2.9384,-1.70843 -2.103,-6.64434 1.122,-6.62884 0.8141,-7.03322 -2.1307,-2.80013 -6.1386,8.82285 -2.2641,13.93148 13.7541,18.13529 8.3889,2.20165 18.9867,4.02648 23.5505,4.05517 4.5636,0.0286 7.6182,1.05257 6.788,2.27528 -0.8303,1.22271 6.5539,7.20707 16.409,13.29856 20.03003,12.3808 63.67373,50.3036699 81.09303,70.463281 9.8469,11.396138 12.9018,13.192193 22.4402,13.192193 7.137,0 13.5386,-2.135413 18.1034,-6.038719 5.4405,-4.65204 7.0622,-5.069774 7.0622,-1.819107 0,5.317676 -8.1991,12.163591 -19.0761,15.927699 -4.6121,1.596033 -8.3856,4.09094 -8.3856,5.544276 0,6.369329 22.9846,4.334565 32.5354,-2.880314 z m -44.7406,-23.088615 c 0,-3.014264 15.5082,-16.1149141 17.2258,-14.55160414 2.9369,2.67333004 -7.6298,15.79716914 -12.7194,15.79716914 -2.4785,0 -4.5064,-0.560516 -4.5064,-1.245565 z m -24.4105,-22.4592241 c 0,-4.1105999 10.4193,-15.1774599 14.2896,-15.1774599 3.4144,0 2.935,1.91575 -2.0844,8.33191 -5.7749,7.3817699 -12.2052,10.9883699 -12.2052,6.8455499 z m -2.9414,-30.9578499 c -0.1068,-5.84528 10.3173,-14.55658 22.0121,-18.39681 7.7833,-2.55576 6.5417,2.86565 -1.5257,6.66292 -3.776,1.77733 -9.9054,6.508 -13.621,10.51262 -6.5481,7.05719 -6.7592,7.09474 -6.8654,1.22127 z m -48.9308,-20.09741 c 0,-5.69761 3.9567,-11.33637 7.9548,-11.33637 5.0813,0 5.2632,1.41995 1.0917,8.51449 -3.2545,5.535 -9.0465,7.34172 -9.0465,2.82188 z m -389.37303,95.375086 c 2.2796,-5.407272 0.7567,-4.961736 -5.8896,1.7229 -4.635,4.661538 -4.7616,5.366668 -0.7092,3.951243 2.7132,-0.947616 5.6825,-3.500958 6.5988,-5.674143 z m 308.7286,-25.006927 0.2136,-30.324409 -1.8259,30.550343 -1.8256,30.550342 -1.4409,-20.829779 c -1.013,-14.6485001 -2.5722,-20.62372614 -5.2546,-20.13545614 -2.3199,0.42232 -3.7958,-2.29790996 -3.7675,-6.94325996 0.037,-5.9515899 0.6997,-6.7179599 3.0047,-3.4716299 2.2695,3.1963199 2.9579,2.2266799 2.9579,-4.16595 0,-6.06347 -0.754,-7.2474 -2.7694,-4.34854 -2.0404,2.9347 -3.1044,1.47231 -4.042,-5.5546 -0.8031,-6.02037 -1.4524,-3.26173 -1.7609,7.48008 -0.3491,12.1647299 0.8171,18.0041199 4.0887,20.4755339 3.2042,2.420448 4.577,8.8393801 4.577,21.4012921 0,13.117789 1.0258,17.634101 3.8141,16.792134 2.723,-0.822221 3.8758,-9.827045 4.0293,-31.476101 z m 46.1131,26.089576 c -0.9739,-2.215539 -1.6971,-1.557457 -1.8433,1.677963 -0.1312,2.927723 0.5886,4.568082 1.6026,3.645211 1.0139,-0.92287 1.1222,-3.318294 0.241,-5.323174 z M -1052.203,3.0661989 c -0.6398,-6.445876 -1.1558,-0.471666 -1.1464,13.2759851 0,13.747653 0.5328,19.021531 1.1635,11.71975 0.6307,-7.30181 0.6231,-18.5498901 -0.031,-24.9957351 z m -5.5851,12.5816591 c -0.2136,-15.02493514 -1.0417,-19.4276051 -2.7471,-14.5808451 -4.6691,13.2702351 -3.3827,36.1049491 2.0343,36.1049491 0.5593,0 0.88,-9.685847 0.7128,-21.524104 z m 22.1577,5.558384 c -1.1186,-17.3242101 -6.5969,-27.4547291 -6.5969,-12.1988621 0,6.3273651 -1.1479,8.5220461 -3.8142,7.2927551 -2.0978,-0.967196 -1.4112,0.03416 1.5257,2.225259 2.9369,2.191071 5.3398,7.282896 5.3398,11.315153 0,4.032284 1.0298,7.333109 2.2884,7.335192 1.2587,0.0021 1.8244,-7.18419 1.2572,-15.969497 z m -236.9583,5.872498 c -2.8963,-4.02373 -8.4445,-15.584257 -12.3288,-25.6900571 -4.032,-10.48968 -7.1602,-15.6156699 -7.2898,-11.9457399 -0.3891,11.01519986 17.3384,44.951715 23.4816,44.951715 0.772,0 -0.9664,-3.29216 -3.863,-7.315918 z m 349.36223,-9.160742 c 0,-3.18104 -10.0333,-6.227382 -24.3408,-7.390544 -5.9122,-0.48064 -17.2713,-1.9828011 -25.2429,-3.3382081 -7.9715,-1.35538 -14.4937,-1.516241 -14.4937,-0.357467 0,2.377761 26.4918,8.0193811 39.0543,8.3169691 4.5327,0.107204 10.9871,1.269284 14.3436,2.582088 8.2293,3.2187 10.6795,3.261665 10.6795,0.18719 z m -168.13973,-54.086355 c -2.7349,-2.28611 -3.144,-1.77953 -1.6568,2.0519 1.0862,2.79808 2.2543,14.67105 2.5957,26.3843899 l 0.6213,21.2969471 1.0356,-23.3488471 c 0.6923,-15.6048399 -0.1679,-24.3556499 -2.5958,-26.3843899 z m 45.0571,36.54103986 c -0.8464,-1.90938996 -1.5391,-0.34716 -1.5391,3.47163404 0,3.818792 0.6927,5.381026 1.5391,3.471629 0.8465,-1.909396 0.8465,-5.033863 0,-6.94326304 z m 28.4922,4.95799104 c 0,-0.70999 -3.0895,-2.653631 -6.8654,-4.319151 -6.5927,-2.90795 -6.6302,-2.85668 -0.9426,1.29092 6.2256,4.539751 7.808,5.15348 7.808,3.028231 z m -105.27,-11.475851 c -3.3565,-2.34204 -16.3678,-8.7742499 -28.9142,-14.2938099 -18.6322,-8.19704 -27.0172,-10.21922 -45.7696,-11.038 -13.8486,-0.60468 -29.0115,0.54804 -38.2145,2.90522 l -15.2565,3.90764 29.8326,0.13637 c 42.9788,0.19635 67.4976,4.45213 84.5913,14.6827199 7.1141,4.25791 14.7485,7.5218 18.3078,7.82727 0.8391,0.0719 -1.2205,-1.78528 -4.5769,-4.12732 z m 90.0135,3.38629 c 0,-0.57671 -2.4029,-2.76384 -5.3398,-4.86028 -4.8397,-3.4546099 -4.9474,-3.3563799 -1.1522,1.04859 3.9862,4.6263 6.492,6.09751996 6.492,3.81169 z m 88.48783,0.14414 c 0,-0.49747 -3.776,-3.93438 -8.3911,-7.6375899 l -8.3911,-6.73304 7.3973,7.6375799 c 6.914,7.13848 9.3849,8.91122996 9.3849,6.73305 z M -1359.5631,-15.596727 c -3.4968,-3.18271 -6.1026,-9.25767 -6.1026,-14.2266 0,-6.93976 -0.818,-8.0541 -4.0948,-5.57869 -4.7189,3.56451 -8.3719,1.43881 -6.2357,-3.62835 2.4447,-5.79854 -7.1892,-10.58547 -18.8168,-9.3499 -9.1844,0.97594 -10.7033,0.39496 -9.5411,-3.64985 1.7759,-6.18139 -5.8304,-3.8669 -8.5586,2.60422 -1.3636,3.23431 2.0038,7.78312 11.2065,15.13853 20.6983,16.54345 57.9211,33.0519399 42.1431,18.69064 z m 97.8063,-5.39736 c 6.181,-2.35526 5.366,-2.54984 -4.7415,-1.13222 -14.2929,2.00466 -15.0173,2.38818 -12.2391,6.47967 1.4284,2.10353 3.2918,2.19874 5.8097,0.29679 2.0389,-1.5401 7.0656,-4.08 11.1709,-5.64424 z m 272.30213,-3.62888 c -0.8864,-4.20067 -3.5115,-7.63758 -5.8332,-7.63758 -2.3217,0 -4.2212,-1.24979 -4.2212,-2.77731 0,-1.52751 -1.37313,-2.7773 -3.05133,-2.7773 -5.4286,0 -3.2496,5.86208 5.21133,14.02152 4.5443,4.38242 8.5425,7.70711 8.8845,7.38816 0.3421,-0.31895 -0.1037,-4.01681 -0.9901,-8.21749 z m -114.76573,0.17358 c -0.974,-2.21553 -1.6971,-1.55745 -1.8433,1.67797 -0.1312,2.92772 0.5886,4.56808 1.6025,3.64521 1.014,-0.9229 1.1223,-3.3183 0.2411,-5.32318 z m 129.12183,0.84467 c 0,-1.34936 -2.7462,-3.10703 -6.1026,-3.90595 -6.6116,-1.57367 -8.5352,2.22573 -2.2885,4.51998 6.0117,2.2079 8.3911,2.03379 8.3911,-0.61403 z m -35.86873,-7.26718 c -0.8022,-3.81879 -2.6715,-6.94326 -4.1541,-6.94326 -3.5065,0 -3.401,1.94278 0.4632,8.51449 4.2666,7.25635 5.4399,6.75688 3.6909,-1.57123 z m -281.4671,0.16386 c 0,-0.67361 -1.373,-1.99716 -3.0513,-2.94122 -1.6782,-0.94406 -3.0513,-0.39293 -3.0513,1.22474 0,1.61766 1.3731,2.94122 3.0513,2.94122 1.6783,0 3.0513,-0.55113 3.0513,-1.22474 z m 189.1318,-28.63128 c -0.2136,-18.80493 1.1458,-33.28512 3.6698,-39.12021 4.3521,-10.060513 5.6309,-8.245513 -18.3255,-26.007793 -10.4501,-7.74803 -25.0241,-13.74212 -30.5066,-12.54705 -3.8908,0.84808 -3.102,1.88151 3.256,4.26497 4.6151,1.73012 8.3911,4.50015 8.3911,6.15564 0,1.65547 1.5101,2.16047 3.3558,1.12223 2.4334,-1.36896 2.4432,-0.3357 0.037,3.75999 -1.8265,3.10625 -5.0529,6.21044 -7.1699,6.89819 -2.117,0.68777 -2.8954,2.18557 -1.7295,3.32843 1.1656,1.14286 5.5683,-1.30944 9.7837,-5.44954 l 7.6646,-7.5275 9.7333,6.30829 9.7331,6.30828 -6.8871,5.07611 c -9.0859,6.69669 -28.0793,6.68155 -34.7501,-0.0278 -4.7481,-4.77544 -4.6807,-5.51742 1.0527,-11.53417 9.1503,-9.6032 7.4055,-13.29062 -1.8595,-3.92947 -4.3926,4.43824 -7.0579,6.50733 -5.9226,4.59794 1.1351,-1.9094 0.7244,-3.47163 -0.9129,-3.47163 -1.6373,0 -3.6899,1.56223 -4.5611,3.47163 -1.1229,2.46133 -3.1947,1.83507 -7.1196,-2.15205 -3.0449,-3.093 -7.9389,-5.18848 -10.8758,-4.65663 -3.4901,0.63209 -5.3398,-0.75253 -5.3398,-3.99773 0,-4.52678 -0.4256,-4.57727 -4.8256,-0.57246 -3.3943,3.08961 -4.7985,9.53874 -4.7344,21.74449 0.049,9.543703 0.8486,18.041583 1.7743,18.884163 0.9258,0.84269 1.6831,-1.72693 1.6831,-5.71016 0,-8.207773 5.9119,-13.382053 6.4566,-5.65098 0.3302,4.68647 0.4482,4.6952 1.7566,0.12997 2.154,-7.516523 7.0064,-2.800603 7.3476,7.14117 0.2746,7.96901 0.5114,8.18819 2.3599,2.1743 2.5917,-8.43198 10.2645,-9.58531 18.3206,-2.75381 3.422,2.90173 7.6865,5.27591 9.4771,5.27591 1.7902,0 4.0683,3.70053 5.0621,8.2234 0.9938,4.52289 3.2859,7.95981 5.0938,7.63759 1.8079,-0.3222 4.2306,3.16354 5.384,7.74609 2.0295,8.06296 2.1247,7.97331 2.9464,-2.7773 0.8104,-10.60122 0.9056,-10.69648 2.0801,-2.08298 0.6767,4.96443 2.4736,9.02624 3.9929,9.02624 1.5192,0 2.041,-1.71043 1.1598,-3.80097 -0.9508,-2.25517 0.9496,-4.40841 4.6725,-5.29459 5.9155,-1.40804 6.2753,-0.31487 6.2753,19.07613 0,11.31337 0.7515,20.56977 1.67,20.56977 0.9187,0 1.518,-13.43521 1.3322,-29.85602 z m -15.1607,-16.66382 c -0.031,-3.43692 1.3264,-6.24894 3.0046,-6.24894 3.823,0 3.823,2.94739 0,8.33192 -2.3919,3.36875 -2.9668,2.97016 -3.0046,-2.08298 z m 20.3644,24.99573 c -0.7674,-2.67315 -1.3953,-0.48603 -1.3953,4.86028 0,5.34631 0.6279,7.53344 1.3953,4.86028 0.7674,-2.67315 0.7674,-7.0474 0,-9.72056 z m -127.2067,2.08298 c -5.8738,-2.92697 -13.4258,-5.2791 -16.7822,-5.22691 -4.1846,0.065 -3.0547,1.11964 3.595,3.35523 5.334,1.79317 10.7119,4.19767 11.9511,5.34331 1.2391,1.14564 4.4271,2.0306 7.0845,1.96655 2.6571,-0.0642 0.031,-2.51121 -5.8484,-5.43818 z m 140.9593,2.04604 c -1.7594,-1.9297 -4.8324,-9.41289 -6.8289,-16.62933 -1.9964,-7.21641 -4.8091,-12.45726 -6.2509,-11.64634 -4.0994,2.3061 9.5836,31.78424 14.7534,31.78424 0.8391,0 0.085,-1.57884 -1.6736,-3.50857 z m -234.422,-10.65116 c -3.1377,-4.87669 -9.3322,-11.32759 -13.7657,-14.3353 -9.308,-6.31437 -32.6288,-10.91941 -38.9618,-7.69357 -4.8919,2.49182 -1.2135,3.83412 19.0566,6.95436 8.2096,1.26373 15.4927,5.32782 24.4105,13.62112 6.9902,6.50101 13.217,11.48254 13.8373,11.07009 0.62,-0.41246 -1.4396,-4.73997 -4.5769,-9.6167 z m 120.7139,-9.42719 c -11.253,-36.938063 -5.8061,-67.560083 16.2729,-91.485943 8.1668,-8.84994 14.5971,-12.97746 22.2547,-14.28504 12.6189,-2.15471 12.4035,-8.39881 -0.2594,-7.5318 -29.7106,2.03418 -68.4023,68.16737 -56.1556,95.982403 5.0511,11.47196 21.5923,38.65277 22.8344,37.52212 0.52,-0.47336 -1.7059,-9.56417 -4.9467,-20.20174 z m 82.5957,15.09109 c 0,-3.14519 -1.3132,-4.97982 -2.9179,-4.077 -1.605,0.90282 -2.1448,3.47616 -1.1992,5.71852 2.4203,5.741 4.1171,5.06447 4.1171,-1.64152 z m 26.154,-37.1313 c 6.9155,-6.29448 5.3169,-11.568893 -1.7435,-5.75299 -5.843,4.81306 -8.0439,9.72056 -4.3591,9.72056 0.959,0 3.7052,-1.78542 6.1026,-3.96757 z m 22.4259,-2.28136 c -0.1312,-3.43692 -0.9334,-4.6867 -1.7799,-2.77731 -2.6296,5.93149 -6.6329,3.80777 -5.2357,-2.7773 1.3005,-6.127233 1.2651,-6.122233 -1.8171,0.25662 -3.5422,7.33095 -1.8344,11.54706 4.6768,11.54706 2.5969,0 4.2984,-2.55818 4.1559,-6.24893 z m -23.1006,-40.960983 c -3.3021,-15.02827 -13.916,-21.90049 -48.9374,-31.68607 -18.2724,-5.10566 -19.3193,-5.18311 -25.0927,-1.85646 -6.0715,3.49821 11.3493,17.82421 34.0043,27.96351 9.6208,4.30579 21.8922,11.83359 27.2699,16.72842 9.4898,8.63764 9.8484,8.72612 12.1741,3.00379 1.3178,-3.24275 1.5796,-9.61169 0.5818,-14.15319 z m 49.4303,8.52568 c 1.5943,-1.41862 7.5986,-2.98085 13.3433,-3.47163 12.9543,-1.10678 16.8057,-7.92987 4.3033,-7.62431 -11.4943,0.28092 -29.3359,6.29515 -30.8374,10.39492 -1.4192,3.87528 9.001,4.42905 13.1908,0.70102 z m -109.9926,-3.64555 c 1.3734,1.13237 1.468,0.43596 0.2106,-1.54762 -1.7615,-2.77864 -3.2747,-2.85993 -6.5918,-0.35425 -2.3681,1.78873 -4.3053,3.87712 -4.3053,4.64088 0,0.76376 1.8426,-0.003 4.0948,-1.70463 2.2522,-1.70129 5.2187,-2.16677 6.5917,-1.03438 z m -7.6352,-17.38225 c -2.0893,-2.29128 -5.0576,-4.16596 -6.5967,-4.16596 -3.5035,0 4.094,8.08185 7.733,8.22627 1.4643,0.058 0.9529,-1.76904 -1.1363,-4.06031 z"
       style="fill:#000000" />
  </g>
</svg>
