<?xml version="1.0" encoding="utf-8"?>
<!-- Generator: Adobe Illustrator 19.0.0, SVG Export Plug-In . SVG Version: 6.00 Build 0)  -->
<svg version="1.1" id="Layer_1" xmlns="http://www.w3.org/2000/svg" xmlns:xlink="http://www.w3.org/1999/xlink" x="0px" y="0px"
	 viewBox="-155 -360 649 1280" style="enable-background:new -155 -360 649 1280;" xml:space="preserve">
<style type="text/css">
	.st0{fill:#FF7171;}
</style>
<g transform="translate(0.000000,1280.000000) scale(0.100000,-0.100000)">
	<path class="st0" d="M1570,16390c-890-68-1658-374-2277-910c-97-83-148-137-242-255c-26-33-107-118-178-190
		c-142-142-216-251-266-391c-45-125-44-118-77-859c-21-479-30-667-41-900c-8-177-8-269,0-351c9-91,7-206-11-620
		c-27-620-28-902-4-1074c39-285,141-838,175-950c11-36,34-128,52-205c48-215,99-338,211-519c80-128,101-150,223-231
		c177-118,409-225,487-225c28,0,280-127,324-163c36-30,36-30,32-96c-5-82-46-190-197-522c-97-214-112-254-112-301
		c-1-64,22-115,100-222c60-82,59-86-7-230l-46-98l48-145c83-246,213-514,352-723c64-96,316-394,429-505c81-80,390-312,518-389
		c190-114,396-206,692-306c214-73,336-95,489-87c186,10,313,63,419,176c70,75,107,138,142,242c30,87,53,235,40,247
		c-9,8-429,192-438,192c-2,0-7-27-11-61c-17-164-78-303-175-399c-110-108-223-150-410-150c-201,0-282,27-481,160
		c-511,342-969,941-1171,1529l-42,123l31,123c47,182,43,219-42,344c-20,29-39,64-42,76c-4,14,15,88,49,192c116,353,185,622,190,743
		l2,55l-70,47c-76,52-311,175-387,203c-27,10-48,19-48,22c0,2,15,17,34,34c175,153,331,706,353,1254c6,160,6,160,36,195
		c48,55,88,152,105,255c12,77,14,132,6,314c-5,122-7,221-6,221c2,0,49-25,103-56c143-81,203-104,274-103c33,0,74,6,90,13
		c27,11,36,10,92-15c247-110,601-182,968-195c254-10,439,7,812,73l31,5l-45-118l-45-119l5-185c5-170,35-452,92-845
		c16-112,15-120-38-275c-52-152-75-338-59-480c24-211,101-397,188-451c28-17,52-21,146-22l112-2l523,810c288,446,527,824,532,840
		c5,17,146,438,314,937l306,907l26,353c31,426,55,754,99,1361l33,457l26,20c25,20,26,22,11,62c-7,22-14,50-14,61s-6,28-14,36
		c-7,9-75,187-151,396l-137,380l-77,105c-239,330-523,639-741,807c-244,187-640,422-758,449c-37,8-121,28-187,44
		c-150,35-221,46-432,65C2210,16394,1729,16402,1570,16390z M1375,16173l77-6l-61-22c-93-34-168-83-252-165
		c-132-129-226-295-313-550l-44-131l-184-3c-101-2-221-8-268-14c-47-7-161-16-254-22s-262-24-374-41c-113-16-206-28-209-26
		c-8,8,203,197,312,280c185,139,416,274,677,394c220,101,749,312,784,313C1283,16180,1332,16177,1375,16173z M2633,15808l121-63
		l57-121c82-173,94-213,93-319c0-78-4-100-32-165c-18-41-42-88-54-103l-23-28l-340,56c-187,30-416,64-510,75c-290,33-265,27-265,69
		c0,58,27,149,69,236c79,160,251,308,426,365c42,14,273,57,314,59C2502,15870,2567,15842,2633,15808z M3749,14925
		c97-123,175-234,169-241c-3-2-80,22-172,54l-167,58l-3,155c-1,84-6,163-10,174C3555,15153,3655,15044,3749,14925z"/>
</g>
</svg>
